<?xml version="1.0" standalone="no"?>
<mlt LC_NUMERIC="C" version="7.24.0" title="Shotcut version 24.04.28" producer="main_bin">
  <profile description="automatic" width="1920" height="1080" progressive="1" sample_aspect_num="1" sample_aspect_den="1" display_aspect_num="16" display_aspect_den="9" frame_rate_num="30" frame_rate_den="1" colorspace="709"/>
  <playlist id="main_bin">
    <property name="xml_retain">1</property>
  </playlist>
  <producer id="black" in="00:00:00.000" out="00:00:30.067">
    <property name="length">00:00:30.100</property>
    <property name="eof">pause</property>
    <property name="resource">0</property>
    <property name="aspect_ratio">1</property>
    <property name="mlt_service">color</property>
    <property name="mlt_image_format">rgba</property>
    <property name="set.test_audio">0</property>
  </producer>
  <playlist id="background">
    <entry producer="black" in="00:00:00.000" out="00:00:30.067"/>
  </playlist>
  <chain id="chain0" out="00:00:08.733">
    <property name="length">00:00:08.767</property>
    <property name="eof">pause</property>
    <property name="resource">C:/Users/tina/Downloads/VID_20240609_141539.mp4</property>
    <property name="mlt_service">avformat-novalidate</property>
    <property name="meta.media.nb_streams">2</property>
    <property name="meta.media.0.stream.type">video</property>
    <property name="meta.media.0.stream.frame_rate">30</property>
    <property name="meta.media.0.stream.sample_aspect_ratio">0</property>
    <property name="meta.media.0.codec.width">1920</property>
    <property name="meta.media.0.codec.height">1080</property>
    <property name="meta.media.0.codec.rotate">0</property>
    <property name="meta.media.0.codec.pix_fmt">yuv420p</property>
    <property name="meta.media.0.codec.sample_aspect_ratio">0</property>
    <property name="meta.media.0.codec.colorspace">709</property>
    <property name="meta.media.0.codec.color_trc">1</property>
    <property name="meta.media.0.codec.name">h264</property>
    <property name="meta.media.0.codec.long_name">H.264 / AVC / MPEG-4 AVC / MPEG-4 part 10</property>
    <property name="meta.media.0.codec.bit_rate">20047716</property>
    <property name="meta.attr.0.stream.creation_time.markup">2024-06-09T12:15:48.000000Z</property>
    <property name="meta.attr.0.stream.language.markup">eng</property>
    <property name="meta.attr.0.stream.handler_name.markup">VideoHandle</property>
    <property name="meta.attr.0.stream.vendor_id.markup">[0][0][0][0]</property>
    <property name="meta.media.1.stream.type">audio</property>
    <property name="meta.media.1.codec.sample_fmt">fltp</property>
    <property name="meta.media.1.codec.sample_rate">48000</property>
    <property name="meta.media.1.codec.channels">2</property>
    <property name="meta.media.1.codec.layout">stereo</property>
    <property name="meta.media.1.codec.name">aac</property>
    <property name="meta.media.1.codec.long_name">AAC (Advanced Audio Coding)</property>
    <property name="meta.media.1.codec.bit_rate">256065</property>
    <property name="meta.attr.1.stream.creation_time.markup">2024-06-09T12:15:48.000000Z</property>
    <property name="meta.attr.1.stream.language.markup">eng</property>
    <property name="meta.attr.1.stream.handler_name.markup">SoundHandle</property>
    <property name="meta.attr.1.stream.vendor_id.markup">[0][0][0][0]</property>
    <property name="meta.attr.major_brand.markup">mp42</property>
    <property name="meta.attr.minor_version.markup">0</property>
    <property name="meta.attr.compatible_brands.markup">isommp42</property>
    <property name="meta.attr.creation_time.markup">2024-06-09T12:15:48.000000Z</property>
    <property name="meta.attr.location.markup">+45.8213+016.1761/</property>
    <property name="meta.attr.location-eng.markup">+45.8213+016.1761/</property>
    <property name="meta.attr.com.android.version.markup">14</property>
    <property name="seekable">1</property>
    <property name="meta.media.sample_aspect_num">1</property>
    <property name="meta.media.sample_aspect_den">1</property>
    <property name="audio_index">-1</property>
    <property name="video_index">0</property>
    <property name="creation_time">2024-06-09T12:15:48</property>
    <property name="vstream">0</property>
    <property name="meta.media.frame_rate_num">30</property>
    <property name="meta.media.frame_rate_den">1</property>
    <property name="meta.media.colorspace">709</property>
    <property name="meta.media.color_trc">1</property>
    <property name="meta.media.has_b_frames">0</property>
    <property name="meta.media.width">1920</property>
    <property name="meta.media.height">1080</property>
    <property name="meta.media.aspect_ratio">1</property>
    <property name="meta.media.color_range">mpeg</property>
    <property name="astream">-1</property>
    <property name="shotcut:skipConvert">0</property>
    <property name="meta.media.top_field_first">0</property>
    <property name="meta.media.progressive">1</property>
    <property name="shotcut:hash">be55088778dc3d3fec5ab2835f4d42e7</property>
    <property name="ignore_points">0</property>
    <property name="shotcut:caption">VID_20240609_141539.mp4</property>
    <property name="xml">was here</property>
    <property name="shotcut:defaultAudioIndex">1</property>
  </chain>
  <producer id="producer0" in="00:00:00.000" out="00:00:14.567">
    <property name="length">00:00:14.600</property>
    <property name="eof">pause</property>
    <property name="resource">0.6:C:/Users/tina/Downloads/VID_20240609_141539.mp4</property>
    <property name="aspect_ratio">1</property>
    <property name="meta.media.nb_streams">2</property>
    <property name="meta.media.0.stream.type">video</property>
    <property name="meta.media.0.stream.frame_rate">30</property>
    <property name="meta.media.0.stream.sample_aspect_ratio">0</property>
    <property name="meta.media.0.codec.width">1920</property>
    <property name="meta.media.0.codec.height">1080</property>
    <property name="meta.media.0.codec.rotate">0</property>
    <property name="meta.media.0.codec.pix_fmt">yuv420p</property>
    <property name="meta.media.0.codec.sample_aspect_ratio">0</property>
    <property name="meta.media.0.codec.colorspace">709</property>
    <property name="meta.media.0.codec.color_trc">1</property>
    <property name="meta.media.0.codec.name">h264</property>
    <property name="meta.media.0.codec.long_name">H.264 / AVC / MPEG-4 AVC / MPEG-4 part 10</property>
    <property name="meta.media.0.codec.bit_rate">20047716</property>
    <property name="meta.attr.0.stream.creation_time.markup">2024-06-09T12:15:48.000000Z</property>
    <property name="meta.attr.0.stream.language.markup">eng</property>
    <property name="meta.attr.0.stream.handler_name.markup">VideoHandle</property>
    <property name="meta.attr.0.stream.vendor_id.markup">[0][0][0][0]</property>
    <property name="meta.media.1.stream.type">audio</property>
    <property name="meta.media.1.codec.sample_fmt">fltp</property>
    <property name="meta.media.1.codec.sample_rate">48000</property>
    <property name="meta.media.1.codec.channels">2</property>
    <property name="meta.media.1.codec.layout">stereo</property>
    <property name="meta.media.1.codec.name">aac</property>
    <property name="meta.media.1.codec.long_name">AAC (Advanced Audio Coding)</property>
    <property name="meta.media.1.codec.bit_rate">256065</property>
    <property name="meta.attr.1.stream.creation_time.markup">2024-06-09T12:15:48.000000Z</property>
    <property name="meta.attr.1.stream.language.markup">eng</property>
    <property name="meta.attr.1.stream.handler_name.markup">SoundHandle</property>
    <property name="meta.attr.1.stream.vendor_id.markup">[0][0][0][0]</property>
    <property name="meta.attr.major_brand.markup">mp42</property>
    <property name="meta.attr.minor_version.markup">0</property>
    <property name="meta.attr.compatible_brands.markup">isommp42</property>
    <property name="meta.attr.creation_time.markup">2024-06-09T12:15:48.000000Z</property>
    <property name="meta.attr.location.markup">+45.8213+016.1761/</property>
    <property name="meta.attr.location-eng.markup">+45.8213+016.1761/</property>
    <property name="meta.attr.com.android.version.markup">14</property>
    <property name="seekable">1</property>
    <property name="meta.media.sample_aspect_num">1</property>
    <property name="meta.media.sample_aspect_den">1</property>
    <property name="audio_index">-1</property>
    <property name="video_index">0</property>
    <property name="warp_speed">0.6</property>
    <property name="warp_resource">C:/Users/tina/Downloads/VID_20240609_141539.mp4</property>
    <property name="mlt_service">timewarp</property>
    <property name="shotcut:producer">avformat</property>
    <property name="video_delay">0</property>
    <property name="astream">-1</property>
    <property name="vstream">0</property>
    <property name="shotcut:hash">be55088778dc3d3fec5ab2835f4d42e7</property>
    <property name="shotcut:skipConvert">0</property>
    <property name="shotcut:defaultAudioIndex">1</property>
    <property name="shotcut:caption">VID_20240609_141539.mp4 (0.6x)</property>
    <property name="xml">was here</property>
    <property name="meta.media.frame_rate_num">30</property>
    <property name="meta.media.frame_rate_den">1</property>
    <property name="meta.media.colorspace">709</property>
    <property name="meta.media.color_trc">1</property>
    <property name="meta.media.has_b_frames">0</property>
    <property name="meta.media.width">1920</property>
    <property name="meta.media.height">1080</property>
    <property name="meta.media.aspect_ratio">1</property>
    <property name="meta.media.color_range">mpeg</property>
    <property name="meta.media.top_field_first">0</property>
    <property name="meta.media.progressive">1</property>
  </producer>
  <producer id="producer1" in="00:00:00.000" out="00:00:21.867">
    <property name="length">00:00:21.900</property>
    <property name="eof">pause</property>
    <property name="resource">0.4:C:/Users/tina/Downloads/VID_20240609_141539.mp4</property>
    <property name="aspect_ratio">1</property>
    <property name="meta.media.nb_streams">2</property>
    <property name="meta.media.0.stream.type">video</property>
    <property name="meta.media.0.stream.frame_rate">30</property>
    <property name="meta.media.0.stream.sample_aspect_ratio">0</property>
    <property name="meta.media.0.codec.width">1920</property>
    <property name="meta.media.0.codec.height">1080</property>
    <property name="meta.media.0.codec.rotate">0</property>
    <property name="meta.media.0.codec.pix_fmt">yuv420p</property>
    <property name="meta.media.0.codec.sample_aspect_ratio">0</property>
    <property name="meta.media.0.codec.colorspace">709</property>
    <property name="meta.media.0.codec.color_trc">1</property>
    <property name="meta.media.0.codec.name">h264</property>
    <property name="meta.media.0.codec.long_name">H.264 / AVC / MPEG-4 AVC / MPEG-4 part 10</property>
    <property name="meta.media.0.codec.bit_rate">20047716</property>
    <property name="meta.attr.0.stream.creation_time.markup">2024-06-09T12:15:48.000000Z</property>
    <property name="meta.attr.0.stream.language.markup">eng</property>
    <property name="meta.attr.0.stream.handler_name.markup">VideoHandle</property>
    <property name="meta.attr.0.stream.vendor_id.markup">[0][0][0][0]</property>
    <property name="meta.media.1.stream.type">audio</property>
    <property name="meta.media.1.codec.sample_fmt">fltp</property>
    <property name="meta.media.1.codec.sample_rate">48000</property>
    <property name="meta.media.1.codec.channels">2</property>
    <property name="meta.media.1.codec.layout">stereo</property>
    <property name="meta.media.1.codec.name">aac</property>
    <property name="meta.media.1.codec.long_name">AAC (Advanced Audio Coding)</property>
    <property name="meta.media.1.codec.bit_rate">256065</property>
    <property name="meta.attr.1.stream.creation_time.markup">2024-06-09T12:15:48.000000Z</property>
    <property name="meta.attr.1.stream.language.markup">eng</property>
    <property name="meta.attr.1.stream.handler_name.markup">SoundHandle</property>
    <property name="meta.attr.1.stream.vendor_id.markup">[0][0][0][0]</property>
    <property name="meta.attr.major_brand.markup">mp42</property>
    <property name="meta.attr.minor_version.markup">0</property>
    <property name="meta.attr.compatible_brands.markup">isommp42</property>
    <property name="meta.attr.creation_time.markup">2024-06-09T12:15:48.000000Z</property>
    <property name="meta.attr.location.markup">+45.8213+016.1761/</property>
    <property name="meta.attr.location-eng.markup">+45.8213+016.1761/</property>
    <property name="meta.attr.com.android.version.markup">14</property>
    <property name="seekable">1</property>
    <property name="meta.media.sample_aspect_num">1</property>
    <property name="meta.media.sample_aspect_den">1</property>
    <property name="audio_index">-1</property>
    <property name="video_index">0</property>
    <property name="warp_speed">0.4</property>
    <property name="warp_resource">C:/Users/tina/Downloads/VID_20240609_141539.mp4</property>
    <property name="mlt_service">timewarp</property>
    <property name="shotcut:producer">avformat</property>
    <property name="video_delay">0</property>
    <property name="astream">-1</property>
    <property name="vstream">0</property>
    <property name="shotcut:hash">be55088778dc3d3fec5ab2835f4d42e7</property>
    <property name="shotcut:skipConvert">0</property>
    <property name="shotcut:defaultAudioIndex">1</property>
    <property name="shotcut:caption">VID_20240609_141539.mp4 (0.4x)</property>
    <property name="xml">was here</property>
    <property name="meta.media.frame_rate_num">30</property>
    <property name="meta.media.frame_rate_den">1</property>
    <property name="meta.media.colorspace">709</property>
    <property name="meta.media.color_trc">1</property>
    <property name="meta.media.has_b_frames">0</property>
    <property name="meta.media.width">1920</property>
    <property name="meta.media.height">1080</property>
    <property name="meta.media.aspect_ratio">1</property>
    <property name="meta.media.color_range">mpeg</property>
    <property name="meta.media.top_field_first">0</property>
    <property name="meta.media.progressive">1</property>
  </producer>
  <playlist id="playlist0">
    <property name="shotcut:video">1</property>
    <property name="shotcut:name">V1</property>
    <entry producer="chain0" in="00:00:01.800" out="00:00:03.433"/>
    <entry producer="producer0" in="00:00:05.767" out="00:00:07.533"/>
    <entry producer="producer1" in="00:00:11.333" out="00:00:21.833"/>
  </playlist>
  <producer id="producer2" in="00:00:00.000" out="03:59:59.967">
    <property name="length">04:00:00.000</property>
    <property name="eof">pause</property>
    <property name="resource">slikanapkon.png</property>
    <property name="ttl">1</property>
    <property name="aspect_ratio">1</property>
    <property name="meta.media.progressive">1</property>
    <property name="seekable">1</property>
    <property name="format">2</property>
    <property name="meta.media.width">1920</property>
    <property name="meta.media.height">1080</property>
    <property name="mlt_service">qimage</property>
    <property name="creation_time">2024-06-09T13:05:30</property>
    <property name="shotcut:skipConvert">0</property>
    <property name="shotcut:caption">slikanapkon.png</property>
    <property name="shotcut:hash">22929a2553457c71e50622ce3abc7cfa</property>
    <property name="ignore_points">0</property>
    <property name="xml">was here</property>
    <filter id="filter0" out="00:00:13.967">
      <property name="maxdiameter">2</property>
      <property name="maxcount">10</property>
      <property name="mlt_service">dust</property>
      <property name="cache-dy-4-38">58</property>
      <property name="cache-dy-2-38">23</property>
      <property name="cache-dy-0-38">34</property>
      <property name="cache-dy-1-38">50</property>
      <property name="cache-dy-3-38">89</property>
    </filter>
  </producer>
  <playlist id="playlist1">
    <property name="shotcut:video">1</property>
    <property name="shotcut:name">V2</property>
    <entry producer="producer2" in="00:00:00.000" out="00:00:13.967"/>
  </playlist>
  <playlist id="playlist2">
    <property name="shotcut:audio">1</property>
    <property name="shotcut:name">A1</property>
    <blank length="00:00:00.033"/>
  </playlist>
  <producer id="producer3" in="00:00:00.000" out="00:00:03.600">
    <property name="length">00:00:03.633</property>
    <property name="eof">pause</property>
    <property name="resource">2:C:/Users/tina/Downloads/VID_20240609_151050.mp4</property>
    <property name="aspect_ratio">1</property>
    <property name="meta.media.nb_streams">2</property>
    <property name="meta.media.0.stream.type">video</property>
    <property name="meta.media.0.stream.frame_rate">30</property>
    <property name="meta.media.0.stream.sample_aspect_ratio">0</property>
    <property name="meta.media.0.codec.width">1920</property>
    <property name="meta.media.0.codec.height">1080</property>
    <property name="meta.media.0.codec.rotate">0</property>
    <property name="meta.media.0.codec.pix_fmt">yuv420p</property>
    <property name="meta.media.0.codec.sample_aspect_ratio">0</property>
    <property name="meta.media.0.codec.colorspace">709</property>
    <property name="meta.media.0.codec.color_trc">1</property>
    <property name="meta.media.0.codec.name">h264</property>
    <property name="meta.media.0.codec.long_name">H.264 / AVC / MPEG-4 AVC / MPEG-4 part 10</property>
    <property name="meta.media.0.codec.bit_rate">8053204</property>
    <property name="meta.attr.0.stream.creation_time.markup">2024-06-09T13:10:50.000000Z</property>
    <property name="meta.attr.0.stream.language.markup">eng</property>
    <property name="meta.attr.0.stream.handler_name.markup">VideoHandle</property>
    <property name="meta.attr.0.stream.vendor_id.markup">[0][0][0][0]</property>
    <property name="meta.media.1.stream.type">audio</property>
    <property name="meta.media.1.codec.sample_fmt">fltp</property>
    <property name="meta.media.1.codec.sample_rate">44100</property>
    <property name="meta.media.1.codec.channels">2</property>
    <property name="meta.media.1.codec.layout">stereo</property>
    <property name="meta.media.1.codec.name">aac</property>
    <property name="meta.media.1.codec.long_name">AAC (Advanced Audio Coding)</property>
    <property name="meta.media.1.codec.bit_rate">96595</property>
    <property name="meta.attr.1.stream.creation_time.markup">2024-06-09T13:10:50.000000Z</property>
    <property name="meta.attr.1.stream.language.markup">eng</property>
    <property name="meta.attr.1.stream.handler_name.markup">SoundHandle</property>
    <property name="meta.attr.1.stream.vendor_id.markup">[0][0][0][0]</property>
    <property name="meta.attr.major_brand.markup">mp42</property>
    <property name="meta.attr.minor_version.markup">0</property>
    <property name="meta.attr.compatible_brands.markup">isommp42</property>
    <property name="meta.attr.creation_time.markup">2024-06-09T13:10:50.000000Z</property>
    <property name="meta.attr.com.android.version.markup">14</property>
    <property name="seekable">1</property>
    <property name="meta.media.sample_aspect_num">1</property>
    <property name="meta.media.sample_aspect_den">1</property>
    <property name="audio_index">-1</property>
    <property name="video_index">0</property>
    <property name="warp_speed">2</property>
    <property name="warp_resource">C:/Users/tina/Downloads/VID_20240609_151050.mp4</property>
    <property name="mlt_service">timewarp</property>
    <property name="shotcut:producer">avformat</property>
    <property name="video_delay">0</property>
    <property name="astream">-1</property>
    <property name="vstream">0</property>
    <property name="shotcut:hash">d04d680523e68e7f575fe04b899770b8</property>
    <property name="shotcut:skipConvert">0</property>
    <property name="shotcut:defaultAudioIndex">1</property>
    <property name="shotcut:caption">VID_20240609_151050.mp4 (2x)</property>
    <property name="xml">was here</property>
    <property name="meta.media.frame_rate_num">30</property>
    <property name="meta.media.frame_rate_den">1</property>
    <property name="meta.media.colorspace">709</property>
    <property name="meta.media.color_trc">1</property>
    <property name="meta.media.has_b_frames">0</property>
    <property name="meta.media.width">1920</property>
    <property name="meta.media.height">1080</property>
    <property name="meta.media.aspect_ratio">1</property>
    <property name="meta.media.color_range">mpeg</property>
    <property name="meta.media.top_field_first">0</property>
    <property name="meta.media.progressive">1</property>
    <filter id="filter1" out="00:00:00.900">
      <property name="start">1</property>
      <property name="level">00:00:00.000=0;00:00:00.900=1</property>
      <property name="mlt_service">brightness</property>
      <property name="shotcut:filter">fadeInBrightness</property>
      <property name="alpha">1</property>
      <property name="shotcut:animIn">00:00:00.933</property>
      <property name="disable">0</property>
    </filter>
  </producer>
  <producer id="producer4" in="00:00:00.000" out="00:00:18.067">
    <property name="length">00:00:18.100</property>
    <property name="eof">pause</property>
    <property name="resource">0.4:C:/Users/tina/Downloads/VID_20240609_151050.mp4</property>
    <property name="aspect_ratio">1</property>
    <property name="meta.media.nb_streams">2</property>
    <property name="meta.media.0.stream.type">video</property>
    <property name="meta.media.0.stream.frame_rate">30</property>
    <property name="meta.media.0.stream.sample_aspect_ratio">0</property>
    <property name="meta.media.0.codec.width">1920</property>
    <property name="meta.media.0.codec.height">1080</property>
    <property name="meta.media.0.codec.rotate">0</property>
    <property name="meta.media.0.codec.pix_fmt">yuv420p</property>
    <property name="meta.media.0.codec.sample_aspect_ratio">0</property>
    <property name="meta.media.0.codec.colorspace">709</property>
    <property name="meta.media.0.codec.color_trc">1</property>
    <property name="meta.media.0.codec.name">h264</property>
    <property name="meta.media.0.codec.long_name">H.264 / AVC / MPEG-4 AVC / MPEG-4 part 10</property>
    <property name="meta.media.0.codec.bit_rate">8053204</property>
    <property name="meta.attr.0.stream.creation_time.markup">2024-06-09T13:10:50.000000Z</property>
    <property name="meta.attr.0.stream.language.markup">eng</property>
    <property name="meta.attr.0.stream.handler_name.markup">VideoHandle</property>
    <property name="meta.attr.0.stream.vendor_id.markup">[0][0][0][0]</property>
    <property name="meta.media.1.stream.type">audio</property>
    <property name="meta.media.1.codec.sample_fmt">fltp</property>
    <property name="meta.media.1.codec.sample_rate">44100</property>
    <property name="meta.media.1.codec.channels">2</property>
    <property name="meta.media.1.codec.layout">stereo</property>
    <property name="meta.media.1.codec.name">aac</property>
    <property name="meta.media.1.codec.long_name">AAC (Advanced Audio Coding)</property>
    <property name="meta.media.1.codec.bit_rate">96595</property>
    <property name="meta.attr.1.stream.creation_time.markup">2024-06-09T13:10:50.000000Z</property>
    <property name="meta.attr.1.stream.language.markup">eng</property>
    <property name="meta.attr.1.stream.handler_name.markup">SoundHandle</property>
    <property name="meta.attr.1.stream.vendor_id.markup">[0][0][0][0]</property>
    <property name="meta.attr.major_brand.markup">mp42</property>
    <property name="meta.attr.minor_version.markup">0</property>
    <property name="meta.attr.compatible_brands.markup">isommp42</property>
    <property name="meta.attr.creation_time.markup">2024-06-09T13:10:50.000000Z</property>
    <property name="meta.attr.com.android.version.markup">14</property>
    <property name="seekable">1</property>
    <property name="meta.media.sample_aspect_num">1</property>
    <property name="meta.media.sample_aspect_den">1</property>
    <property name="audio_index">-1</property>
    <property name="video_index">0</property>
    <property name="warp_speed">0.4</property>
    <property name="warp_resource">C:/Users/tina/Downloads/VID_20240609_151050.mp4</property>
    <property name="mlt_service">timewarp</property>
    <property name="shotcut:producer">avformat</property>
    <property name="video_delay">0</property>
    <property name="astream">-1</property>
    <property name="vstream">0</property>
    <property name="shotcut:hash">d04d680523e68e7f575fe04b899770b8</property>
    <property name="shotcut:skipConvert">0</property>
    <property name="shotcut:defaultAudioIndex">1</property>
    <property name="shotcut:caption">VID_20240609_151050.mp4 (0.4x)</property>
    <property name="xml">was here</property>
    <property name="meta.media.frame_rate_num">30</property>
    <property name="meta.media.frame_rate_den">1</property>
    <property name="meta.media.colorspace">709</property>
    <property name="meta.media.color_trc">1</property>
    <property name="meta.media.has_b_frames">0</property>
    <property name="meta.media.width">1920</property>
    <property name="meta.media.height">1080</property>
    <property name="meta.media.aspect_ratio">1</property>
    <property name="meta.media.color_range">mpeg</property>
    <property name="meta.media.top_field_first">0</property>
    <property name="meta.media.progressive">1</property>
    <filter id="filter2" in="00:00:04.600" out="00:00:06.367">
      <property name="delta">14</property>
      <property name="every">20</property>
      <property name="brightnessdelta_up">20</property>
      <property name="brightnessdelta_down">30</property>
      <property name="brightnessdelta_every">70</property>
      <property name="unevendevelop_up">60</property>
      <property name="unevendevelop_down">20</property>
      <property name="unevendevelop_duration">70</property>
      <property name="mlt_service">oldfilm</property>
    </filter>
  </producer>
  <producer id="producer5" in="00:00:00.000" out="00:00:04.800">
    <property name="length">00:00:04.833</property>
    <property name="eof">pause</property>
    <property name="resource">1.5:C:/Users/tina/Downloads/VID_20240609_151050.mp4</property>
    <property name="aspect_ratio">1</property>
    <property name="meta.media.nb_streams">2</property>
    <property name="meta.media.0.stream.type">video</property>
    <property name="meta.media.0.stream.frame_rate">30</property>
    <property name="meta.media.0.stream.sample_aspect_ratio">0</property>
    <property name="meta.media.0.codec.width">1920</property>
    <property name="meta.media.0.codec.height">1080</property>
    <property name="meta.media.0.codec.rotate">0</property>
    <property name="meta.media.0.codec.pix_fmt">yuv420p</property>
    <property name="meta.media.0.codec.sample_aspect_ratio">0</property>
    <property name="meta.media.0.codec.colorspace">709</property>
    <property name="meta.media.0.codec.color_trc">1</property>
    <property name="meta.media.0.codec.name">h264</property>
    <property name="meta.media.0.codec.long_name">H.264 / AVC / MPEG-4 AVC / MPEG-4 part 10</property>
    <property name="meta.media.0.codec.bit_rate">8053204</property>
    <property name="meta.attr.0.stream.creation_time.markup">2024-06-09T13:10:50.000000Z</property>
    <property name="meta.attr.0.stream.language.markup">eng</property>
    <property name="meta.attr.0.stream.handler_name.markup">VideoHandle</property>
    <property name="meta.attr.0.stream.vendor_id.markup">[0][0][0][0]</property>
    <property name="meta.media.1.stream.type">audio</property>
    <property name="meta.media.1.codec.sample_fmt">fltp</property>
    <property name="meta.media.1.codec.sample_rate">44100</property>
    <property name="meta.media.1.codec.channels">2</property>
    <property name="meta.media.1.codec.layout">stereo</property>
    <property name="meta.media.1.codec.name">aac</property>
    <property name="meta.media.1.codec.long_name">AAC (Advanced Audio Coding)</property>
    <property name="meta.media.1.codec.bit_rate">96595</property>
    <property name="meta.attr.1.stream.creation_time.markup">2024-06-09T13:10:50.000000Z</property>
    <property name="meta.attr.1.stream.language.markup">eng</property>
    <property name="meta.attr.1.stream.handler_name.markup">SoundHandle</property>
    <property name="meta.attr.1.stream.vendor_id.markup">[0][0][0][0]</property>
    <property name="meta.attr.major_brand.markup">mp42</property>
    <property name="meta.attr.minor_version.markup">0</property>
    <property name="meta.attr.compatible_brands.markup">isommp42</property>
    <property name="meta.attr.creation_time.markup">2024-06-09T13:10:50.000000Z</property>
    <property name="meta.attr.com.android.version.markup">14</property>
    <property name="seekable">1</property>
    <property name="meta.media.sample_aspect_num">1</property>
    <property name="meta.media.sample_aspect_den">1</property>
    <property name="audio_index">-1</property>
    <property name="video_index">0</property>
    <property name="warp_speed">1.5</property>
    <property name="warp_resource">C:/Users/tina/Downloads/VID_20240609_151050.mp4</property>
    <property name="mlt_service">timewarp</property>
    <property name="shotcut:producer">avformat</property>
    <property name="video_delay">0</property>
    <property name="astream">-1</property>
    <property name="vstream">0</property>
    <property name="shotcut:hash">d04d680523e68e7f575fe04b899770b8</property>
    <property name="shotcut:skipConvert">0</property>
    <property name="shotcut:defaultAudioIndex">1</property>
    <property name="shotcut:caption">VID_20240609_151050.mp4 (1.5x)</property>
    <property name="xml">was here</property>
    <property name="meta.media.frame_rate_num">30</property>
    <property name="meta.media.frame_rate_den">1</property>
    <property name="meta.media.colorspace">709</property>
    <property name="meta.media.color_trc">1</property>
    <property name="meta.media.has_b_frames">0</property>
    <property name="meta.media.width">1920</property>
    <property name="meta.media.height">1080</property>
    <property name="meta.media.aspect_ratio">1</property>
    <property name="meta.media.color_range">mpeg</property>
    <property name="meta.media.top_field_first">0</property>
    <property name="meta.media.progressive">1</property>
  </producer>
  <producer id="producer6" in="00:00:00.000" out="00:00:18.067">
    <property name="length">00:00:18.100</property>
    <property name="eof">pause</property>
    <property name="resource">0.4:C:/Users/tina/Downloads/VID_20240609_151050.mp4</property>
    <property name="aspect_ratio">1</property>
    <property name="meta.media.nb_streams">2</property>
    <property name="meta.media.0.stream.type">video</property>
    <property name="meta.media.0.stream.frame_rate">30</property>
    <property name="meta.media.0.stream.sample_aspect_ratio">0</property>
    <property name="meta.media.0.codec.width">1920</property>
    <property name="meta.media.0.codec.height">1080</property>
    <property name="meta.media.0.codec.rotate">0</property>
    <property name="meta.media.0.codec.pix_fmt">yuv420p</property>
    <property name="meta.media.0.codec.sample_aspect_ratio">0</property>
    <property name="meta.media.0.codec.colorspace">709</property>
    <property name="meta.media.0.codec.color_trc">1</property>
    <property name="meta.media.0.codec.name">h264</property>
    <property name="meta.media.0.codec.long_name">H.264 / AVC / MPEG-4 AVC / MPEG-4 part 10</property>
    <property name="meta.media.0.codec.bit_rate">8053204</property>
    <property name="meta.attr.0.stream.creation_time.markup">2024-06-09T13:10:50.000000Z</property>
    <property name="meta.attr.0.stream.language.markup">eng</property>
    <property name="meta.attr.0.stream.handler_name.markup">VideoHandle</property>
    <property name="meta.attr.0.stream.vendor_id.markup">[0][0][0][0]</property>
    <property name="meta.media.1.stream.type">audio</property>
    <property name="meta.media.1.codec.sample_fmt">fltp</property>
    <property name="meta.media.1.codec.sample_rate">44100</property>
    <property name="meta.media.1.codec.channels">2</property>
    <property name="meta.media.1.codec.layout">stereo</property>
    <property name="meta.media.1.codec.name">aac</property>
    <property name="meta.media.1.codec.long_name">AAC (Advanced Audio Coding)</property>
    <property name="meta.media.1.codec.bit_rate">96595</property>
    <property name="meta.attr.1.stream.creation_time.markup">2024-06-09T13:10:50.000000Z</property>
    <property name="meta.attr.1.stream.language.markup">eng</property>
    <property name="meta.attr.1.stream.handler_name.markup">SoundHandle</property>
    <property name="meta.attr.1.stream.vendor_id.markup">[0][0][0][0]</property>
    <property name="meta.attr.major_brand.markup">mp42</property>
    <property name="meta.attr.minor_version.markup">0</property>
    <property name="meta.attr.compatible_brands.markup">isommp42</property>
    <property name="meta.attr.creation_time.markup">2024-06-09T13:10:50.000000Z</property>
    <property name="meta.attr.com.android.version.markup">14</property>
    <property name="seekable">1</property>
    <property name="meta.media.sample_aspect_num">1</property>
    <property name="meta.media.sample_aspect_den">1</property>
    <property name="audio_index">-1</property>
    <property name="video_index">0</property>
    <property name="warp_speed">0.4</property>
    <property name="warp_resource">C:/Users/tina/Downloads/VID_20240609_151050.mp4</property>
    <property name="mlt_service">timewarp</property>
    <property name="shotcut:producer">avformat</property>
    <property name="video_delay">0</property>
    <property name="astream">-1</property>
    <property name="vstream">0</property>
    <property name="shotcut:hash">d04d680523e68e7f575fe04b899770b8</property>
    <property name="shotcut:skipConvert">0</property>
    <property name="shotcut:defaultAudioIndex">1</property>
    <property name="shotcut:caption">VID_20240609_151050.mp4 (0.4x)</property>
    <property name="xml">was here</property>
    <property name="meta.media.frame_rate_num">30</property>
    <property name="meta.media.frame_rate_den">1</property>
    <property name="meta.media.colorspace">709</property>
    <property name="meta.media.color_trc">1</property>
    <property name="meta.media.has_b_frames">0</property>
    <property name="meta.media.width">1920</property>
    <property name="meta.media.height">1080</property>
    <property name="meta.media.aspect_ratio">1</property>
    <property name="meta.media.color_range">mpeg</property>
    <property name="meta.media.top_field_first">0</property>
    <property name="meta.media.progressive">1</property>
    <filter id="filter3" in="00:00:09.433" out="00:00:15.500">
      <property name="mlt_service">avfilter.hue</property>
      <property name="av.h">0</property>
      <property name="av.b">-0.1</property>
      <property name="av.s">00:00:00.000=0.98;00:00:03.700=0</property>
    </filter>
  </producer>
  <chain id="chain1" out="00:00:07.200">
    <property name="length">00:00:07.233</property>
    <property name="eof">pause</property>
    <property name="resource">C:/Users/tina/Downloads/VID_20240609_151050.mp4</property>
    <property name="mlt_service">avformat-novalidate</property>
    <property name="meta.media.nb_streams">2</property>
    <property name="meta.media.0.stream.type">video</property>
    <property name="meta.media.0.stream.frame_rate">30</property>
    <property name="meta.media.0.stream.sample_aspect_ratio">0</property>
    <property name="meta.media.0.codec.width">1920</property>
    <property name="meta.media.0.codec.height">1080</property>
    <property name="meta.media.0.codec.rotate">0</property>
    <property name="meta.media.0.codec.pix_fmt">yuv420p</property>
    <property name="meta.media.0.codec.sample_aspect_ratio">0</property>
    <property name="meta.media.0.codec.colorspace">709</property>
    <property name="meta.media.0.codec.color_trc">1</property>
    <property name="meta.media.0.codec.name">h264</property>
    <property name="meta.media.0.codec.long_name">H.264 / AVC / MPEG-4 AVC / MPEG-4 part 10</property>
    <property name="meta.media.0.codec.bit_rate">8053204</property>
    <property name="meta.attr.0.stream.creation_time.markup">2024-06-09T13:10:50.000000Z</property>
    <property name="meta.attr.0.stream.language.markup">eng</property>
    <property name="meta.attr.0.stream.handler_name.markup">VideoHandle</property>
    <property name="meta.attr.0.stream.vendor_id.markup">[0][0][0][0]</property>
    <property name="meta.media.1.stream.type">audio</property>
    <property name="meta.media.1.codec.sample_fmt">fltp</property>
    <property name="meta.media.1.codec.sample_rate">44100</property>
    <property name="meta.media.1.codec.channels">2</property>
    <property name="meta.media.1.codec.layout">stereo</property>
    <property name="meta.media.1.codec.name">aac</property>
    <property name="meta.media.1.codec.long_name">AAC (Advanced Audio Coding)</property>
    <property name="meta.media.1.codec.bit_rate">96595</property>
    <property name="meta.attr.1.stream.creation_time.markup">2024-06-09T13:10:50.000000Z</property>
    <property name="meta.attr.1.stream.language.markup">eng</property>
    <property name="meta.attr.1.stream.handler_name.markup">SoundHandle</property>
    <property name="meta.attr.1.stream.vendor_id.markup">[0][0][0][0]</property>
    <property name="meta.attr.major_brand.markup">mp42</property>
    <property name="meta.attr.minor_version.markup">0</property>
    <property name="meta.attr.compatible_brands.markup">isommp42</property>
    <property name="meta.attr.creation_time.markup">2024-06-09T13:10:50.000000Z</property>
    <property name="meta.attr.com.android.version.markup">14</property>
    <property name="seekable">1</property>
    <property name="meta.media.sample_aspect_num">1</property>
    <property name="meta.media.sample_aspect_den">1</property>
    <property name="audio_index">-1</property>
    <property name="video_index">0</property>
    <property name="creation_time">2024-06-09T13:10:50</property>
    <property name="vstream">0</property>
    <property name="meta.media.frame_rate_num">30</property>
    <property name="meta.media.frame_rate_den">1</property>
    <property name="meta.media.colorspace">709</property>
    <property name="meta.media.color_trc">1</property>
    <property name="meta.media.has_b_frames">0</property>
    <property name="meta.media.width">1920</property>
    <property name="meta.media.height">1080</property>
    <property name="meta.media.aspect_ratio">1</property>
    <property name="meta.media.color_range">mpeg</property>
    <property name="astream">-1</property>
    <property name="shotcut:skipConvert">0</property>
    <property name="meta.media.top_field_first">0</property>
    <property name="meta.media.progressive">1</property>
    <property name="shotcut:hash">d04d680523e68e7f575fe04b899770b8</property>
    <property name="ignore_points">0</property>
    <property name="shotcut:caption">VID_20240609_151050.mp4</property>
    <property name="xml">was here</property>
    <property name="shotcut:defaultAudioIndex">1</property>
    <property name="meta.shotcut.vui">1</property>
    <filter id="filter4" in="00:00:06.233" out="00:00:07.200">
      <property name="mlt_service">avfilter.hue</property>
      <property name="av.h">0</property>
      <property name="av.b">0</property>
      <property name="av.s">0</property>
    </filter>
    <filter id="filter5" in="00:00:06.233" out="00:00:07.200">
      <property name="background">color:#00000000</property>
      <property name="mlt_service">affine</property>
      <property name="shotcut:filter">affineSizePosition</property>
      <property name="transition.fix_rotate_x">00:00:00.233=0;00:00:00.933=185.1;00:00:00.967=20.6</property>
      <property name="transition.fill">1</property>
      <property name="transition.distort">0</property>
      <property name="transition.rect">0 0 1920 1080 1</property>
      <property name="transition.valign">middle</property>
      <property name="transition.halign">center</property>
      <property name="shotcut:animIn">00:00:00.000</property>
      <property name="shotcut:animOut">00:00:00.000</property>
      <property name="transition.threads">0</property>
    </filter>
  </chain>
  <playlist id="playlist3">
    <property name="shotcut:video">1</property>
    <property name="shotcut:name">V3</property>
    <blank length="00:00:12.667"/>
    <entry producer="producer3" in="00:00:00.000" out="00:00:00.900"/>
    <entry producer="producer4" in="00:00:04.600" out="00:00:06.367"/>
    <entry producer="producer5" in="00:00:01.700" out="00:00:02.500"/>
    <entry producer="producer6" in="00:00:09.433" out="00:00:15.500"/>
    <entry producer="chain1" in="00:00:06.233" out="00:00:07.200"/>
  </playlist>
  <chain id="chain2" out="00:00:05.800">
    <property name="length">00:00:05.833</property>
    <property name="eof">pause</property>
    <property name="resource">C:/Users/tina/Downloads/VID_20240609_142000 (1).mp4</property>
    <property name="mlt_service">avformat-novalidate</property>
    <property name="meta.media.nb_streams">2</property>
    <property name="meta.media.0.stream.type">video</property>
    <property name="meta.media.0.stream.frame_rate">30</property>
    <property name="meta.media.0.stream.sample_aspect_ratio">0</property>
    <property name="meta.media.0.codec.width">1920</property>
    <property name="meta.media.0.codec.height">1080</property>
    <property name="meta.media.0.codec.rotate">0</property>
    <property name="meta.media.0.codec.pix_fmt">yuv420p</property>
    <property name="meta.media.0.codec.sample_aspect_ratio">0</property>
    <property name="meta.media.0.codec.colorspace">709</property>
    <property name="meta.media.0.codec.color_trc">1</property>
    <property name="meta.media.0.codec.name">h264</property>
    <property name="meta.media.0.codec.long_name">H.264 / AVC / MPEG-4 AVC / MPEG-4 part 10</property>
    <property name="meta.media.0.codec.bit_rate">20095326</property>
    <property name="meta.attr.0.stream.creation_time.markup">2024-06-09T12:20:06.000000Z</property>
    <property name="meta.attr.0.stream.language.markup">eng</property>
    <property name="meta.attr.0.stream.handler_name.markup">VideoHandle</property>
    <property name="meta.attr.0.stream.vendor_id.markup">[0][0][0][0]</property>
    <property name="meta.media.1.stream.type">audio</property>
    <property name="meta.media.1.codec.sample_fmt">fltp</property>
    <property name="meta.media.1.codec.sample_rate">48000</property>
    <property name="meta.media.1.codec.channels">2</property>
    <property name="meta.media.1.codec.layout">stereo</property>
    <property name="meta.media.1.codec.name">aac</property>
    <property name="meta.media.1.codec.long_name">AAC (Advanced Audio Coding)</property>
    <property name="meta.media.1.codec.bit_rate">256141</property>
    <property name="meta.attr.1.stream.creation_time.markup">2024-06-09T12:20:06.000000Z</property>
    <property name="meta.attr.1.stream.language.markup">eng</property>
    <property name="meta.attr.1.stream.handler_name.markup">SoundHandle</property>
    <property name="meta.attr.1.stream.vendor_id.markup">[0][0][0][0]</property>
    <property name="meta.attr.major_brand.markup">mp42</property>
    <property name="meta.attr.minor_version.markup">0</property>
    <property name="meta.attr.compatible_brands.markup">isommp42</property>
    <property name="meta.attr.creation_time.markup">2024-06-09T12:20:06.000000Z</property>
    <property name="meta.attr.location.markup">+45.8213+016.1760/</property>
    <property name="meta.attr.location-eng.markup">+45.8213+016.1760/</property>
    <property name="meta.attr.com.android.version.markup">14</property>
    <property name="seekable">1</property>
    <property name="meta.media.sample_aspect_num">1</property>
    <property name="meta.media.sample_aspect_den">1</property>
    <property name="audio_index">-1</property>
    <property name="video_index">0</property>
    <property name="creation_time">2024-06-09T12:20:06</property>
    <property name="vstream">0</property>
    <property name="meta.media.frame_rate_num">30</property>
    <property name="meta.media.frame_rate_den">1</property>
    <property name="meta.media.colorspace">709</property>
    <property name="meta.media.color_trc">1</property>
    <property name="meta.media.has_b_frames">0</property>
    <property name="meta.media.width">1920</property>
    <property name="meta.media.height">1080</property>
    <property name="meta.media.aspect_ratio">1</property>
    <property name="meta.media.color_range">mpeg</property>
    <property name="astream">-1</property>
    <property name="shotcut:skipConvert">0</property>
    <property name="meta.media.top_field_first">0</property>
    <property name="meta.media.progressive">1</property>
    <property name="shotcut:hash">758d9b687e264c373deb71971f940d15</property>
    <property name="ignore_points">0</property>
    <property name="shotcut:caption">VID_20240609_142000 (1).mp4</property>
    <property name="xml">was here</property>
    <property name="shotcut:defaultAudioIndex">1</property>
    <property name="meta.shotcut.vui">1</property>
    <filter id="filter6" out="00:00:00.933">
      <property name="background">color:#00000000</property>
      <property name="mlt_service">affine</property>
      <property name="shotcut:filter">affineSizePosition</property>
      <property name="transition.fix_rotate_x">00:00:00.000=-174.9;00:00:00.967=-110.696</property>
      <property name="transition.fill">1</property>
      <property name="transition.distort">0</property>
      <property name="transition.rect">0 0 1920 1080 1</property>
      <property name="transition.valign">middle</property>
      <property name="transition.halign">center</property>
      <property name="shotcut:animIn">00:00:00.000</property>
      <property name="shotcut:animOut">00:00:00.000</property>
      <property name="transition.threads">0</property>
    </filter>
  </chain>
  <producer id="producer7" in="00:00:00.000" out="00:00:08.300">
    <property name="length">00:00:08.333</property>
    <property name="eof">pause</property>
    <property name="resource">0.7:C:/Users/tina/Downloads/VID_20240609_142000 (1).mp4</property>
    <property name="aspect_ratio">1</property>
    <property name="meta.media.nb_streams">2</property>
    <property name="meta.media.0.stream.type">video</property>
    <property name="meta.media.0.stream.frame_rate">30</property>
    <property name="meta.media.0.stream.sample_aspect_ratio">0</property>
    <property name="meta.media.0.codec.width">1920</property>
    <property name="meta.media.0.codec.height">1080</property>
    <property name="meta.media.0.codec.rotate">0</property>
    <property name="meta.media.0.codec.pix_fmt">yuv420p</property>
    <property name="meta.media.0.codec.sample_aspect_ratio">0</property>
    <property name="meta.media.0.codec.colorspace">709</property>
    <property name="meta.media.0.codec.color_trc">1</property>
    <property name="meta.media.0.codec.name">h264</property>
    <property name="meta.media.0.codec.long_name">H.264 / AVC / MPEG-4 AVC / MPEG-4 part 10</property>
    <property name="meta.media.0.codec.bit_rate">20095326</property>
    <property name="meta.attr.0.stream.creation_time.markup">2024-06-09T12:20:06.000000Z</property>
    <property name="meta.attr.0.stream.language.markup">eng</property>
    <property name="meta.attr.0.stream.handler_name.markup">VideoHandle</property>
    <property name="meta.attr.0.stream.vendor_id.markup">[0][0][0][0]</property>
    <property name="meta.media.1.stream.type">audio</property>
    <property name="meta.media.1.codec.sample_fmt">fltp</property>
    <property name="meta.media.1.codec.sample_rate">48000</property>
    <property name="meta.media.1.codec.channels">2</property>
    <property name="meta.media.1.codec.layout">stereo</property>
    <property name="meta.media.1.codec.name">aac</property>
    <property name="meta.media.1.codec.long_name">AAC (Advanced Audio Coding)</property>
    <property name="meta.media.1.codec.bit_rate">256141</property>
    <property name="meta.attr.1.stream.creation_time.markup">2024-06-09T12:20:06.000000Z</property>
    <property name="meta.attr.1.stream.language.markup">eng</property>
    <property name="meta.attr.1.stream.handler_name.markup">SoundHandle</property>
    <property name="meta.attr.1.stream.vendor_id.markup">[0][0][0][0]</property>
    <property name="meta.attr.major_brand.markup">mp42</property>
    <property name="meta.attr.minor_version.markup">0</property>
    <property name="meta.attr.compatible_brands.markup">isommp42</property>
    <property name="meta.attr.creation_time.markup">2024-06-09T12:20:06.000000Z</property>
    <property name="meta.attr.location.markup">+45.8213+016.1760/</property>
    <property name="meta.attr.location-eng.markup">+45.8213+016.1760/</property>
    <property name="meta.attr.com.android.version.markup">14</property>
    <property name="seekable">1</property>
    <property name="meta.media.sample_aspect_num">1</property>
    <property name="meta.media.sample_aspect_den">1</property>
    <property name="audio_index">-1</property>
    <property name="video_index">0</property>
    <property name="warp_speed">0.7</property>
    <property name="warp_resource">C:/Users/tina/Downloads/VID_20240609_142000 (1).mp4</property>
    <property name="mlt_service">timewarp</property>
    <property name="shotcut:producer">avformat</property>
    <property name="video_delay">0</property>
    <property name="astream">-1</property>
    <property name="vstream">0</property>
    <property name="shotcut:hash">758d9b687e264c373deb71971f940d15</property>
    <property name="shotcut:skipConvert">0</property>
    <property name="shotcut:caption">VID_20240609_142000 (1).mp4 (0.7x)</property>
    <property name="xml">was here</property>
    <property name="meta.media.frame_rate_num">30</property>
    <property name="meta.media.frame_rate_den">1</property>
    <property name="meta.media.colorspace">709</property>
    <property name="meta.media.color_trc">1</property>
    <property name="meta.media.has_b_frames">0</property>
    <property name="meta.media.width">1920</property>
    <property name="meta.media.height">1080</property>
    <property name="meta.media.aspect_ratio">1</property>
    <property name="meta.media.color_range">mpeg</property>
    <property name="meta.media.top_field_first">0</property>
    <property name="meta.media.progressive">1</property>
    <property name="shotcut:defaultAudioIndex">1</property>
    <filter id="filter7" in="00:00:01.367" out="00:00:07.133">
      <property name="start">1</property>
      <property name="level">00:00:04.800=1;00:00:05.767=0</property>
      <property name="mlt_service">brightness</property>
      <property name="shotcut:filter">fadeOutBrightness</property>
      <property name="alpha">1</property>
      <property name="shotcut:animOut">00:00:01.000</property>
    </filter>
  </producer>
  <playlist id="playlist4">
    <property name="shotcut:video">1</property>
    <property name="shotcut:name">V4</property>
    <blank length="00:00:23.333"/>
    <entry producer="chain2" in="00:00:00.000" out="00:00:00.933"/>
    <entry producer="producer7" in="00:00:01.367" out="00:00:07.133"/>
  </playlist>
  <producer id="producer8" in="00:00:00.000" out="03:59:59.967">
    <property name="length">04:00:00.000</property>
    <property name="eof">pause</property>
    <property name="resource">#00000000</property>
    <property name="aspect_ratio">1</property>
    <property name="mlt_service">color</property>
    <property name="mlt_image_format">rgba</property>
    <property name="shotcut:caption">transparent</property>
    <property name="shotcut:detail">transparent</property>
    <property name="ignore_points">0</property>
    <property name="meta.shotcut.vui">1</property>
    <property name="xml">was here</property>
    <property name="seekable">1</property>
    <filter id="filter8" out="00:00:30.067">
      <property name="argument">Valentina Stjepanović - Digitalni multimedij 1</property>
      <property name="geometry">9 935 1045 140 1</property>
      <property name="family">Source Code Pro Semibold</property>
      <property name="size">80</property>
      <property name="weight">600</property>
      <property name="style">normal</property>
      <property name="fgcolour">#ff000000</property>
      <property name="bgcolour">#00000000</property>
      <property name="olcolour">#aa000000</property>
      <property name="pad">0</property>
      <property name="halign">center</property>
      <property name="valign">middle</property>
      <property name="outline">0</property>
      <property name="opacity">1</property>
      <property name="mlt_service">dynamictext</property>
      <property name="shotcut:filter">dynamicText</property>
      <property name="shotcut:usePointSize">1</property>
      <property name="shotcut:pointSize">60</property>
      <property name="shotcut:animIn">0</property>
      <property name="shotcut:animOut">0</property>
    </filter>
  </producer>
  <playlist id="playlist5">
    <property name="shotcut:video">1</property>
    <property name="shotcut:name">V5</property>
    <entry producer="producer8" in="00:00:00.000" out="00:00:30.067"/>
  </playlist>
  <producer id="producer9" in="00:00:00.000" out="03:59:59.967">
    <property name="length">04:00:00.000</property>
    <property name="eof">pause</property>
    <property name="resource">#00000000</property>
    <property name="aspect_ratio">1</property>
    <property name="mlt_service">color</property>
    <property name="mlt_image_format">rgba</property>
    <property name="shotcut:caption">transparent</property>
    <property name="shotcut:detail">transparent</property>
    <property name="ignore_points">0</property>
    <property name="meta.shotcut.vui">1</property>
    <property name="xml">was here</property>
    <property name="seekable">1</property>
    <filter id="filter9" out="00:00:03.967">
      <property name="argument">KINDER</property>
      <property name="geometry">-152 297 2161 440 1</property>
      <property name="family">Segoe UI Black</property>
      <property name="size">1080</property>
      <property name="weight">900</property>
      <property name="style">normal</property>
      <property name="fgcolour">#ffffffff</property>
      <property name="bgcolour">#00000000</property>
      <property name="olcolour">#aaff0000</property>
      <property name="pad">0</property>
      <property name="halign">center</property>
      <property name="valign">top</property>
      <property name="outline">90</property>
      <property name="opacity">1.0</property>
      <property name="mlt_service">dynamictext</property>
      <property name="shotcut:filter">dynamicText</property>
      <property name="shotcut:usePointSize">0</property>
      <property name="shotcut:pointSize">60</property>
    </filter>
    <filter id="filter10" out="00:00:03.967">
      <property name="background">color:#00000000</property>
      <property name="mlt_service">affine</property>
      <property name="shotcut:filter">affineSizePosition</property>
      <property name="transition.fix_rotate_x">00:00:03.000=0;00:00:03.967=0</property>
      <property name="transition.fill">0</property>
      <property name="transition.distort">0</property>
      <property name="transition.rect">00:00:03.000=0 0 1920 1080 1;00:00:03.967=0 -1080 1920 1080 1</property>
      <property name="transition.valign">middle</property>
      <property name="transition.halign">center</property>
      <property name="shotcut:animIn">00:00:00.000</property>
      <property name="shotcut:animOut">00:00:01.000</property>
      <property name="transition.threads">0</property>
    </filter>
  </producer>
  <playlist id="playlist6">
    <property name="shotcut:video">1</property>
    <property name="shotcut:name">V6</property>
    <entry producer="producer9" in="00:00:00.000" out="00:00:03.967"/>
  </playlist>
  <tractor id="tractor0" title="Shotcut version 24.04.28" in="00:00:00.000" out="00:00:30.067">
    <property name="shotcut">1</property>
    <property name="shotcut:projectAudioChannels">2</property>
    <property name="shotcut:projectFolder">0</property>
    <track producer="background"/>
    <track producer="playlist0"/>
    <track producer="playlist1"/>
    <track producer="playlist2" hide="video"/>
    <track producer="playlist3"/>
    <track producer="playlist4"/>
    <track producer="playlist5"/>
    <track producer="playlist6"/>
    <transition id="transition0">
      <property name="a_track">0</property>
      <property name="b_track">1</property>
      <property name="mlt_service">mix</property>
      <property name="always_active">1</property>
      <property name="sum">1</property>
    </transition>
    <transition id="transition1">
      <property name="a_track">0</property>
      <property name="b_track">1</property>
      <property name="version">0.1</property>
      <property name="mlt_service">frei0r.cairoblend</property>
      <property name="threads">0</property>
      <property name="disable">1</property>
    </transition>
    <transition id="transition2">
      <property name="a_track">0</property>
      <property name="b_track">2</property>
      <property name="mlt_service">mix</property>
      <property name="always_active">1</property>
      <property name="sum">1</property>
    </transition>
    <transition id="transition3">
      <property name="a_track">1</property>
      <property name="b_track">2</property>
      <property name="version">0.1</property>
      <property name="mlt_service">frei0r.cairoblend</property>
      <property name="threads">0</property>
      <property name="disable">0</property>
    </transition>
    <transition id="transition4">
      <property name="a_track">0</property>
      <property name="b_track">3</property>
      <property name="mlt_service">mix</property>
      <property name="always_active">1</property>
      <property name="sum">1</property>
    </transition>
    <transition id="transition5">
      <property name="a_track">0</property>
      <property name="b_track">4</property>
      <property name="mlt_service">mix</property>
      <property name="always_active">1</property>
      <property name="sum">1</property>
    </transition>
    <transition id="transition6">
      <property name="a_track">1</property>
      <property name="b_track">4</property>
      <property name="version">0.1</property>
      <property name="mlt_service">frei0r.cairoblend</property>
      <property name="threads">0</property>
      <property name="disable">0</property>
    </transition>
    <transition id="transition7">
      <property name="a_track">0</property>
      <property name="b_track">5</property>
      <property name="mlt_service">mix</property>
      <property name="always_active">1</property>
      <property name="sum">1</property>
    </transition>
    <transition id="transition8">
      <property name="a_track">1</property>
      <property name="b_track">5</property>
      <property name="version">0.1</property>
      <property name="mlt_service">frei0r.cairoblend</property>
      <property name="threads">0</property>
      <property name="disable">0</property>
    </transition>
    <transition id="transition9">
      <property name="a_track">0</property>
      <property name="b_track">6</property>
      <property name="mlt_service">mix</property>
      <property name="always_active">1</property>
      <property name="sum">1</property>
    </transition>
    <transition id="transition10">
      <property name="a_track">1</property>
      <property name="b_track">6</property>
      <property name="version">0.1</property>
      <property name="mlt_service">frei0r.cairoblend</property>
      <property name="threads">0</property>
      <property name="disable">0</property>
    </transition>
    <transition id="transition11">
      <property name="a_track">0</property>
      <property name="b_track">7</property>
      <property name="mlt_service">mix</property>
      <property name="always_active">1</property>
      <property name="sum">1</property>
    </transition>
    <transition id="transition12">
      <property name="a_track">1</property>
      <property name="b_track">7</property>
      <property name="version">0.1</property>
      <property name="mlt_service">frei0r.cairoblend</property>
      <property name="threads">0</property>
      <property name="disable">0</property>
    </transition>
  </tractor>
</mlt>
